<?xml version="1.0" encoding="utf-8"?>
<!-- Generator: Adobe Illustrator 23.0.1, SVG Export Plug-In . SVG Version: 6.00 Build 0)  -->
<svg version="1.1" id="Capa_1" xmlns="http://www.w3.org/2000/svg" xmlns:xlink="http://www.w3.org/1999/xlink" x="0px" y="0px"
	 viewBox="0 0 775.4 284.3" enable-background="new 0 0 775.4 284.3" xml:space="preserve">
<g>
	<g>
		<path fill="#FFFFFF" d="M0,230.1l21.9-26.2c14,11.1,29.6,17,46,17c10.6,0,16.2-3.6,16.2-9.7v-0.4c0-5.9-4.7-9.1-23.9-13.6
			C30,190.3,6.7,181.8,6.7,152.6v-0.4c0-26.4,20.9-45.4,55-45.4c24.1,0,43,6.5,58.4,18.9l-19.7,27.7c-13-9.1-27.2-14-39.8-14
			c-9.5,0-14.2,4.1-14.2,9.1v0.4c0,6.5,4.9,9.3,24.5,13.8c32.7,7.1,52.9,17.6,52.9,44.2v0.4c0,29-22.9,46.2-57.4,46.2
			C41.4,253.6,17.5,245.7,0,230.1z"/>
		<path fill="#FFFFFF" d="M136.3,196.8v-0.4c0-32,22.9-57.4,55.4-57.4c37.9,0,55.4,27.8,55.4,60c0,2.4,0,5.3-0.2,7.9h-73.5
			c3,12,11.8,18,23.7,18c9.1,0,16.4-3.5,24.3-11.1l21.3,17.6c-10.6,13.4-25.8,22.3-47.7,22.3C160.7,253.8,136.3,230.9,136.3,196.8z
			 M211,187.3c-1.4-12.2-8.5-19.9-19.1-19.9c-10.1,0-17,7.9-19.1,19.9H211z"/>
		<path fill="#FFFFFF" d="M263.5,141.5H302v15.4c7.1-9.1,17.2-17.9,32.9-17.9c23.3,0,37.3,15.4,37.3,40.4v71.8h-38.5v-59.4
			c0-12-6.3-18.5-15.4-18.5c-9.3,0-16.2,6.5-16.2,18.5v59.4h-38.5L263.5,141.5L263.5,141.5z"/>
		<path fill="#FFFFFF" d="M383.6,230.1l21.9-26.2c14,11.1,29.6,17,46,17c10.5,0,16.2-3.6,16.2-9.7v-0.4c0-5.9-4.7-9.1-23.9-13.6
			c-30.2-6.9-53.5-15.4-53.5-44.6v-0.4c0-26.4,20.9-45.4,55-45.4c24.1,0,43,6.5,58.4,18.9L484,153.5c-13-9.1-27.2-14-39.8-14
			c-9.5,0-14.2,4.1-14.2,9.1v0.4c0,6.5,4.9,9.3,24.5,13.8c32.6,7.1,52.9,17.6,52.9,44.2v0.4c0,29-22.9,46.2-57.4,46.2
			C424.9,253.6,401,245.7,383.6,230.1z"/>
		<path fill="#FFFFFF" d="M524.3,103.1h38.5v75l29.8-36.7h43.6l-38.1,44l39.1,65.7h-42.4l-22-37.2l-9.9,11.6v25.8h-38.5L524.3,103.1
			L524.3,103.1z"/>
		<path fill="#FFFFFF" d="M640.3,274.7l12-27c6.1,3.6,12.6,5.9,16.8,5.9c3.8,0,6.5-1,8.9-4.5l-43-107.7h40.4l17.5,37.2
			c1.4,4.2,7.3,4.1,8.6-0.1l16.5-37.1h39.5l-40.1,107.2c-9.5,25.5-19.9,35.7-41.8,35.7C662,284.3,650.5,280.4,640.3,274.7z"/>
	</g>
</g>
<g>
	<g>
		<path fill="#FFFFFF" d="M721.6,75.8c0-13.5-11-24.5-24.3-24.6c-13.5,0-24.4,11-24.4,24.6s11,24.6,24.4,24.6
			C710.7,100.5,721.6,89.4,721.6,75.8z"/>
		<path fill="#FFFFFF" d="M775.2,90.8c-1.5-15.5-9.9-26.7-24.4-33.7c-0.2-0.1-0.4-0.2-0.7-0.3c-0.1,0-0.1-0.1-0.3-0.4
			c-1.2-13.2-7.2-24.3-18.7-32.3c-11.4-7.9-24.2-9.9-38-6.9c-0.4-0.5-0.9-0.9-1.2-1.4C683.8,6,673,1.2,660.3,0.2
			c-9.1-0.7-18,0-26.5,3.2c-13.9,5.3-22.9,15-28.2,28.2c-2.6,6.5-3.9,13.3-4.1,20.2c0,1-0.1,2-0.2,3c-7.5,2.2-14,5.8-19.1,11.3
			c-11.4,12.2-14.7,26.4-9.1,41.8c5.6,15.3,17.4,24.3,34.1,27.1c2.1,0.4,4.4,0.3,6.5,0.3c19.7,0,39.4,0,59.1,0
			c-4.4-7.7-8.7-15.5-12.6-23.5c-4.1-8.3-7.7-16.8-10.2-25.7c-3.4-12.2-1.2-23.6,4.8-34.4c6.1-11.1,15.3-18.6,27.2-22.5
			c13.4-4.4,26.5-3.1,38.9,3.8c11.1,6.2,18.7,15.6,22.7,27.8c3.1,9.5,3.1,18.9-0.1,28.4c-4.9,14.7-11.7,28.4-19.5,41.6
			c-0.9,1.5-1.8,3-2.7,4.5c3.5,0,6.9,0,10.4,0c10.6,0,20.2-2.9,28.2-9.5C771.2,116.7,776.5,104.9,775.2,90.8z"/>
	</g>
</g>
</svg>
