<?xml version="1.0" encoding="utf-8"?>
<!-- Generator: Adobe Illustrator 25.0.0, SVG Export Plug-In . SVG Version: 6.00 Build 0)  -->
<svg version="1.1" id="Capa_1" xmlns="http://www.w3.org/2000/svg" xmlns:xlink="http://www.w3.org/1999/xlink" x="0px" y="0px"
	 viewBox="0 0 355.45 315.53" style="enable-background:new 0 0 355.45 315.53;" xml:space="preserve">
<style type="text/css">
	.st0{fill:#606060;}
</style>
<g>
	<path class="st0" d="M221.97,89.86c-21.58,0-39.38,17.83-39.37,39.44c0.01,21.55,17.76,39.34,39.3,39.36
		c21.62,0.03,39.43-17.74,39.44-39.36C261.36,107.7,243.55,89.86,221.97,89.86z"/>
	<path class="st0" d="M352.39,155.28c-2.51-26.21-16.9-45.06-41.57-56.9c-0.37-0.18-0.75-0.33-1.11-0.52
		c-0.11-0.06-0.19-0.19-0.59-0.63c-2.08-22.33-12.29-41-31.86-54.45c-19.46-13.37-41.2-16.68-64.65-11.62
		c-0.71-0.76-1.46-1.5-2.13-2.3c-13.79-16.45-32.09-24.63-53.84-26.38c-15.43-1.24-30.58,0-45.12,5.47
		C87.9,16.85,72.45,33.24,63.54,55.49c-4.4,10.97-6.64,22.38-6.91,34.13c-0.04,1.67-0.23,3.35-0.35,5.03
		c-12.76,3.76-23.79,9.86-32.52,19.13C4.39,134.37-1.26,158.24,8.3,184.2c9.52,25.83,29.58,40.94,58.06,45.65
		c3.64,0.6,7.42,0.58,11.14,0.58c31.66,0.02,63.32,0,94.98,0c13.7,24.09,37.46,62.97,39.64,66.29c3.2,4.88,6.46,9.72,9.8,14.73
		c0.6-0.87,1.14-1.59,1.62-2.35c4.03-6.39,31.72-51.05,47.73-78.61c2.41,0,4.82,0,7.24,0c18.11,0.03,34.32-4.84,48.06-16.01
		C345.62,198.97,354.67,179.08,352.39,155.28z M297.16,148.19c-4.16,13.4-9.73,26.25-15.86,38.86
		c-8.32,17.11-52.58,88.52-57.76,96.74c-0.48,0.76-1.02,1.48-1.62,2.35c-3.34-5.01-6.6-9.85-9.8-14.73
		c-2.68-4.08-37.98-61.89-47.09-79.92c-7.19-14.22-13.8-28.67-18.38-43.99c-2.75-9.2-3.75-18.55-2.63-28.07
		c1.12-9.61,4.42-18.52,8.86-27.09c16.94-32.73,53.27-46.41,83.69-40.14c26.81,5.53,46.46,20.83,57.51,46.28
		C301.08,114.64,302.41,131.28,297.16,148.19z"/>
</g>
</svg>
