<?xml version="1.0" encoding="utf-8"?>
<!-- Generator: Adobe Illustrator 23.0.1, SVG Export Plug-In . SVG Version: 6.00 Build 0)  -->
<svg version="1.1" id="Capa_1" xmlns="http://www.w3.org/2000/svg" xmlns:xlink="http://www.w3.org/1999/xlink" x="0px" y="0px"
	 viewBox="0 0 376.9 309.5" style="enable-background:new 0 0 376.9 309.5;" xml:space="preserve">
<style type="text/css">
	.st0{fill:#BEDCFA;}
</style>
<path class="st0" d="M372.7,169.3c-2.7-28.3-17.5-49.6-43.9-63.4c-3.5-23.7-15.5-42.7-35.6-56.5c-19.6-13.5-42-18.3-66.7-14.3
	C211.8,18.7,192,9.3,167.7,7.4c-18.5-1.5-34.7,0.5-49.5,6.1C92.8,23,74.7,40.9,64.4,66.7c-4.5,11.2-7,23.2-7.6,35.5
	c-12,4.5-22.1,11.1-30.2,19.6C4.3,145.5-1.8,173.5,9,202.7c10.6,28.7,33.4,46.8,65.9,52.1c4.3,0.7,8.6,0.7,12.3,0.7h0.5
	c24.7,0,49.4,0,74.1,0h26.5l15.3,0c9.4,15.6,17.6,29,18.8,30.8c3.2,4.9,6.5,9.7,9.8,14.7c0.6-0.9,1.1-1.6,1.6-2.4
	c2.5-4,14.2-22.9,26.6-43.2l19,0c3.1,0,6.3,0,9.4,0c0.1,0,0.1,0,0.2,0c21.1,0,39.4-6.1,54.3-18.3C365.1,219.5,375.3,196,372.7,169.3
	z M330.4,221.6c-11.4,9.2-24.9,13.7-41.5,13.7c0,0-0.1,0-0.2,0c-3.1,0-6.3,0-9.4,0h-6.8c8.6-14.4,16-27.3,19-33.3
	c6.1-12.6,11.7-25.5,15.9-38.9c5.3-16.9,3.9-33.6-3.1-49.7c-11.1-25.5-30.7-40.8-57.5-46.3c-30.4-6.3-66.7,7.4-83.7,40.1
	c-4.4,8.6-7.7,17.5-8.9,27.1c-1.1,9.5-0.1,18.9,2.6,28.1c4.6,15.3,11.2,29.8,18.4,44c3.1,6.2,9.3,17,16.2,28.8h-3.2h-26.5
	c-24.7,0-49.4,0-74.1,0h-0.5c-3.3,0-6.3,0-9-0.4C52.9,230.7,36,217.5,28,195.7c-8.2-22.1-3.8-41.8,13.3-60
	c7.1-7.6,16.3-12.9,28-16.4l6.8-2l0.5-7c0-0.5,0.1-1,0.1-1.5c0.1-1.2,0.2-2.6,0.3-4.1c0.3-10.7,2.3-21,6.2-30.6
	c8.2-20.6,22-34.2,42.1-41.8c12-4.5,25.3-6.1,40.7-4.9c20.1,1.6,35.4,9.1,46.9,22.8c0.7,0.8,1.3,1.5,1.9,2.1
	c0.2,0.2,0.4,0.4,0.6,0.6l3.9,4.2l5.6-1.2c21.6-4.7,40.1-1.4,56.8,10.1c16.4,11.3,25.6,27.1,27.5,47l0.3,3.4l2.4,2.5l0.1,0.1
	c0.4,0.4,1.4,1.6,3.1,2.5l0.1,0.1c0.4,0.2,0.8,0.4,1.2,0.6l0.2,0.1c22,10.6,33.7,26.5,35.9,48.7
	C354.5,191.4,347.2,207.9,330.4,221.6z M194.6,144.3c0-20.6,17-37.6,37.5-37.6s37.5,17,37.5,37.6c0,20.6-17,37.6-37.6,37.5
	C211.6,181.8,194.7,164.8,194.6,144.3z"/>
</svg>
