<?xml version="1.0" standalone="no"?>
<!DOCTYPE svg PUBLIC "-//W3C//DTD SVG 20010904//EN"
 "http://www.w3.org/TR/2001/REC-SVG-20010904/DTD/svg10.dtd">
<svg version="1.0" xmlns="http://www.w3.org/2000/svg"
 width="754.000000pt" height="754.000000pt" viewBox="0 0 754.000000 754.000000"
 preserveAspectRatio="xMidYMid meet">
<metadata>
Created by potrace 1.14, written by Peter Selinger 2001-2017
</metadata>
<g transform="translate(0.000000,754.000000) scale(0.100000,-0.100000)"
fill="#000000" stroke="none">
<path d="M2919 6716 c-2 -2 -26 -6 -54 -9 -109 -12 -147 -18 -212 -33 -98 -23
-101 -24 -124 -29 -40 -8 -94 -28 -106 -38 -7 -5 -13 -7 -13 -4 0 18 -357
-150 -401 -189 -8 -8 -19 -14 -23 -14 -17 0 -206 -154 -273 -222 -113 -115
-169 -185 -255 -318 -60 -94 -171 -316 -169 -337 0 -2 -11 -27 -24 -58 -14
-30 -23 -55 -21 -55 3 0 -5 -26 -16 -57 -11 -32 -22 -69 -25 -83 -2 -14 -8
-41 -13 -60 -9 -34 -12 -48 -24 -120 -14 -82 -16 -99 -21 -170 -7 -99 -10
-106 -48 -120 -115 -42 -306 -153 -423 -245 -66 -53 -190 -181 -253 -262 -33
-43 -64 -82 -69 -88 -27 -34 -107 -173 -140 -245 -109 -232 -156 -506 -129
-740 13 -103 19 -146 23 -162 3 -9 7 -25 9 -35 18 -76 28 -110 56 -189 50
-143 155 -348 218 -426 153 -191 240 -274 401 -379 82 -54 272 -151 320 -164
3 0 42 -13 87 -28 70 -23 165 -48 233 -62 22 -4 130 -18 160 -20 14 -2 579 -3
1256 -4 l1231 -1 19 -37 c10 -21 21 -40 24 -43 3 -3 14 -22 25 -42 11 -21 23
-38 27 -38 5 0 8 -4 8 -9 0 -4 24 -48 54 -97 30 -49 79 -130 110 -181 67 -111
187 -296 196 -303 4 -3 9 -9 11 -15 2 -5 24 -40 48 -77 50 -75 46 -76 105 22
15 25 32 54 39 65 7 11 22 34 34 52 13 17 23 34 23 37 0 3 43 73 95 156 52 83
95 152 95 154 0 2 47 78 105 170 57 93 105 172 107 177 2 5 176 11 388 13 363
4 411 6 485 20 17 3 47 8 69 11 36 6 52 9 94 19 71 17 234 76 317 116 102 49
258 149 330 211 122 105 325 329 325 358 0 6 3 11 8 11 4 0 12 9 17 19 6 11
27 50 48 87 68 119 134 301 153 418 3 21 8 48 10 60 25 116 20 383 -12 546 -2
14 -6 34 -8 45 -8 41 -28 112 -53 185 -93 275 -264 508 -519 710 -43 33 -145
100 -154 100 -6 0 -10 4 -10 10 0 5 -3 9 -7 8 -5 -1 -21 6 -38 16 -16 11 -40
25 -51 32 -12 7 -22 23 -22 36 0 29 -37 186 -58 248 -9 25 -17 50 -18 55 -2 6
-6 19 -10 30 -12 31 -119 249 -125 255 -13 11 -51 70 -51 78 0 4 -8 17 -17 28
-10 10 -36 42 -58 69 -169 211 -439 408 -725 528 -35 15 -76 29 -95 33 -5 1
-32 10 -59 19 -46 16 -61 20 -116 30 -14 2 -56 10 -95 18 -38 7 -87 12 -107
12 -21 0 -38 2 -38 5 0 3 -60 4 -132 4 -125 -1 -191 -6 -292 -19 -42 -6 -44
-5 -112 62 -280 274 -616 430 -1039 480 -49 6 -501 14 -506 9z m481 -410 c14
-3 41 -8 60 -11 19 -3 46 -7 60 -10 14 -4 38 -9 53 -11 96 -18 361 -127 397
-164 3 -3 24 -18 48 -33 72 -47 141 -111 288 -271 l82 -87 126 25 c128 26 250
39 361 39 60 0 187 -11 215 -18 8 -3 33 -7 54 -11 151 -23 427 -154 558 -263
11 -9 29 -24 41 -34 139 -117 249 -257 316 -402 53 -115 66 -147 82 -210 8
-27 14 -52 15 -55 0 -3 4 -23 9 -44 4 -22 9 -47 10 -55 18 -169 15 -157 64
-206 25 -25 82 -64 126 -87 278 -142 464 -322 579 -558 19 -38 32 -70 29 -70
-3 0 0 -6 6 -13 6 -8 12 -22 14 -33 2 -10 6 -26 10 -34 5 -15 19 -73 32 -135
29 -135 26 -377 -6 -500 -37 -141 -77 -229 -163 -354 -51 -75 -226 -261 -244
-261 -6 0 -12 -4 -14 -8 -1 -5 -28 -26 -58 -48 -153 -112 -359 -190 -580 -220
-56 -8 -502 -13 -514 -6 -4 2 -4 7 0 11 9 6 74 109 74 116 0 2 28 50 61 107
57 94 113 192 177 308 91 166 221 452 297 655 20 55 42 114 48 130 7 17 12 32
13 35 0 3 7 25 14 50 7 25 14 47 15 50 1 3 7 23 13 46 56 193 60 433 11 645
-6 26 -12 53 -13 60 -2 8 -6 21 -9 29 -3 8 -15 44 -27 80 -38 117 -120 282
-193 390 -77 114 -229 280 -298 327 -13 9 -26 20 -29 24 -13 17 -206 138 -230
144 -3 1 -39 18 -80 37 -72 34 -154 63 -250 89 -52 15 -46 13 -90 22 -19 4
-46 9 -60 12 -114 25 -396 24 -520 0 -105 -20 -145 -30 -220 -55 -155 -50
-287 -116 -417 -207 -160 -110 -321 -281 -423 -448 -93 -152 -202 -420 -215
-532 -2 -11 -6 -30 -9 -40 -17 -54 -25 -279 -12 -363 4 -25 8 -58 10 -75 3
-30 7 -49 28 -135 19 -79 105 -333 137 -405 40 -89 51 -115 51 -119 0 -2 14
-35 31 -73 17 -37 30 -69 30 -70 -1 -6 219 -434 247 -481 18 -29 32 -54 32
-56 0 -5 161 -279 171 -292 6 -8 2 -13 -13 -16 -34 -5 -2208 -1 -2243 5 -96
17 -114 21 -190 43 -5 2 -17 5 -25 7 -25 6 -64 18 -85 27 -118 49 -169 73
-176 83 -3 5 -9 8 -13 7 -8 -1 -111 66 -156 102 -19 16 -39 32 -45 37 -5 4
-37 37 -70 72 -103 110 -195 263 -245 409 -12 36 -25 72 -28 80 -3 8 -6 20 -7
25 0 6 -4 17 -8 25 -28 63 -44 379 -23 455 3 11 10 40 16 65 15 64 63 190 73
190 4 0 6 4 3 9 -5 8 78 148 129 217 43 58 162 185 211 224 87 69 299 190 333
190 6 0 19 4 29 9 17 10 110 40 124 42 4 0 31 8 60 18 49 17 52 20 54 52 0 19
4 77 8 129 4 52 9 129 12 170 16 280 108 565 257 800 23 36 44 67 48 70 3 3
10 12 15 22 26 47 160 186 239 248 22 17 48 37 58 45 9 8 17 11 17 7 0 -4 4
-2 8 3 28 39 297 172 385 190 9 2 22 7 27 10 5 3 19 8 30 11 11 2 29 6 40 9
70 17 161 34 225 41 33 3 61 7 63 9 6 5 417 -3 442 -9z m1370 -1591 c19 -4 42
-9 50 -10 8 -1 22 -5 30 -8 8 -4 40 -16 71 -27 32 -11 85 -39 119 -61 223
-144 353 -380 350 -639 -1 -97 -3 -113 -24 -191 -57 -210 -206 -387 -406 -481
-108 -51 -196 -71 -320 -71 -243 0 -446 106 -610 320 -17 22 -27 39 -57 98
-39 76 -44 90 -62 180 -44 218 9 442 145 612 59 73 70 83 147 141 95 72 205
118 327 138 19 3 36 7 38 8 5 5 169 -2 202 -9z"/>
</g>
</svg>
